<svg xmlns="http://www.w3.org/2000/svg" width="112" height="40" fill="currentColor" viewBox="0 0 112 40"><path fill="#fff" d="M40.476 29c-3.913 0-7.544-1.173-9.968-3.347-1.832-1.642-2.712-3.873-2.712-6.17a8.29 8.29 0 012.711-6.149C32.76 11.284 36.733 10 40.476 10c4.141 0 7.456 1.042 9.99 3.34 1.802 1.635 2.674 3.871 2.674 6.143 0 2.203-.925 4.548-2.675 6.17C48.106 27.842 44.398 29 40.475 29v-2.506c2.077 0 4.003-.717 5.349-2.054 1.336-1.328 1.958-2.961 1.958-4.957 0-1.912-.671-3.699-1.958-4.967-1.328-1.306-3.3-2.041-5.348-2.041-2.055 0-4.029.727-5.357 2.041-1.28 1.268-1.953 3.06-1.953 4.967 0 1.901.681 3.693 1.953 4.957 1.33 1.322 3.296 2.054 5.357 2.054V29zM11.88 10.01c-2.093 0-4.47.39-6.49 1.292C3.526 12.133 2 13.477 2 15.706c0 2.008 1.276 3.183 1.241 3.15.543.5 1.417 1.35 3.703 1.85 1.021.223 3.205.566 5.38.793 2.159.228 4.283.444 5.148.663.688.175 1.843.413 1.843 1.708 0 1.289-1.217 1.682-1.428 1.768-.212.083-1.671.752-4.295.752-1.937 0-4.266-.582-5.114-.885-.979-.348-2.005-.808-2.963-1.977-.238-.29-.614-1.086-.614-1.875H2.527V28.3h2.64v-.898c0-.103.127-.523.57-.323.552.25 2.17.894 3.862 1.247 1.387.29 2.282.498 4.006.498 2.814 0 4.326-.458 5.371-.757.985-.281 2.202-.787 3.19-1.575.535-.425 1.709-1.517 1.709-3.498a4.894 4.894 0 00-1.381-3.442c-.49-.489-1.087-.868-1.71-1.16-.543-.256-1.4-.562-2.1-.734-1.361-.333-4.437-.745-5.908-.899-1.543-.161-4.219-.383-5.288-.713-.324-.1-.984-.415-.984-1.181 0-.545.302-1.007.899-1.38.948-.594 2.862-.963 4.857-.963 2.36-.008 4.357.53 5.628 1.098.432.193.938.47 1.34.798.453.37 1.09 1.137 1.32 2.207h2.131v-5.787H20.3v.672c0 .217-.225.5-.649.266-1.065-.558-4.077-1.763-7.77-1.768zm52.164 1.05l11.611 10.472-.119-7.05c-.012-.925-.182-1.31-1.183-1.31h-2.183v-2.11H82.1v2.11h-2.13c-1.02 0-1.084.326-1.097 1.31l.18 13.47h-3.4L62.278 16.026l.003 8.465c.012.92.055 1.354 1.004 1.354h2.384v2.108h-9.75v-2.108h2.279c.851 0 .818-.811.818-1.402v-9.88c0-.638-.09-1.389-1.427-1.389h-1.85v-2.112h8.306zm29.4 14.78c.093 0 .507-.012.587-.037a.728.728 0 00.457-.405c.03-.071.045-.388.045-.456l.002-3.333c0-.08-.006-.115-.142-.294-.15-.195-6.082-6.913-6.354-7.208-.337-.368-.929-.935-1.828-.935h-2.064v-2.11h11.644v2.107h-1.404c-.325 0-.54.308-.263.65 0 0 3.917 4.682 3.954 4.731.037.05.068.062.118.016.049-.046 4.015-4.704 4.047-4.741a.406.406 0 00-.346-.654h-1.44v-2.11H110v2.11h-2.132c-.773 0-1.088.144-1.67.8-.266.302-6.261 7.14-6.425 7.325-.085.097-.078.232-.078.312v3.333c0 .067.016.384.046.455a.726.726 0 00.457.405c.081.025.489.037.582.037h2.181v2.11H91.378v-2.11l2.067.002z"/></svg>