<svg xmlns="http://www.w3.org/2000/svg" width="112" height="40" fill="currentColor" viewBox="0 0 112 40"><path fill="#fff" d="M64.27 7.08v2.408c0 .36.278.605.624.605h5.633l-6.473 9.283c-.392.595-.397 1.264-.397 1.657v2.44c0 .351.392.757.766.554 3.668-1.947 8.075-1.758 11.392-.018.406.212.794-.198.794-.55v-2.57c-.033-.345-.147-.696-.572-.936-1.883-1.061-4.074-1.37-6.15-1.32l5.587-7.978c.517-.714.807-1.167.812-1.513V7.08c0-.36-.277-.61-.623-.61H64.88a.594.594 0 00-.61.61zM21.655 24.517h3.28a.62.62 0 00.633-.61v-9.135c-.004-1.925-.008-4.43 2.265-4.43 2.092 0 2.057 2.228 2.028 4.043-.004.206-.007.407-.007.599l.005 8.923a.62.62 0 00.59.61h3.276a.62.62 0 00.632-.61v-8.923-.231c-.002-.942-.005-2.212.305-2.995.337-.849 1.167-1.38 1.961-1.38.95 0 1.684.32 1.929 1.45.126.542.109 1.796.097 2.635-.003.203-.005.382-.005.52v8.924c0 .323.263.586.59.61h3.276a.62.62 0 00.633-.61l.005-10.626c0-.26.004-.524.008-.79.027-1.592.055-3.276-.834-4.488-.919-1.274-2.423-1.841-3.798-1.841-1.933 0-3.737.991-4.531 3.119-.923-2.128-2.206-3.12-4.259-3.12-2.02 0-3.52.992-4.319 3.12h-.06V7.08a.618.618 0 00-.595-.563h-3.059a.616.616 0 00-.632.604v16.837a.62.62 0 00.586.559z"/><path fill="#fff" fill-rule="evenodd" d="M93.072 15.657c0-5.315-2.634-9.495-7.502-9.495-4.748 0-7.383 4.074-7.383 9.315 0 5.21 2.602 9.39 7.383 9.39 4.59 0 7.502-4.074 7.502-9.21zm-10.045-.71c0-2.053.152-5.348 2.57-5.348 1.043 0 1.777.457 2.146 1.629.429 1.347.489 3.045.489 4.466 0 2.16-.12 5.703-2.662 5.703-2.544 0-2.543-4.287-2.543-6.374v-.076z" clip-rule="evenodd"/><path fill="#fff" d="M96.117 24.517h3.267c.35 0 .637-.273.642-.61v-9.066c0-1.135.06-2.16.521-3.189.364-.812 1.098-1.347 1.896-1.347 2.091 0 2.072 2.295 2.056 4.097l-.002.439v9.145c.032.286.281.507.581.53h3.29c.323 0 .595-.235.632-.53V13.387c0-1.629 0-3.894-.858-5.242-.923-1.453-2.358-1.983-3.83-1.983-2.265 0-3.553 1.098-4.471 3.4h-.06V6.987a.628.628 0 00-.586-.47h-3.04a.62.62 0 00-.633.549l.005 16.841c0 .323.263.586.59.61z"/><path fill="#fff" fill-rule="evenodd" d="M58.208 24.549a.685.685 0 00.775-.079l.005.01c.655-.582 1.845-1.62 2.514-2.178.268-.222.222-.577.014-.872-.064-.09-.129-.177-.193-.263-.536-.722-1.043-1.406-1.043-2.778v-5.113c0-.174 0-.348.002-.52.01-1.961.021-3.753-1.447-5.123C57.575 6.424 55.49 6 53.894 6c-3.12 0-6.608 1.163-7.337 5.02-.078.41.222.628.49.688l3.178.341c.3-.014.517-.304.573-.6.272-1.328 1.384-1.97 2.634-1.97.679 0 1.444.25 1.841.854.415.605.409 1.411.403 2.134l-.001.242v.425c-.307.035-.629.068-.96.101-1.726.177-3.716.38-5.21 1.038-2.057.886-3.497 2.7-3.497 5.362 0 3.41 2.146 5.112 4.91 5.112 2.33 0 3.608-.55 5.407-2.386.089.129.169.248.244.36.43.64.712 1.058 1.639 1.828zm-2.533-7.901v-.884c-2.377 0-4.882.507-4.882 3.303 0 1.417.738 2.376 1.998 2.376.918 0 1.749-.567 2.27-1.49.617-1.083.615-2.103.614-3.305zM15.2 24.549a.685.685 0 00.775-.079l.009.01c.655-.582 1.846-1.62 2.515-2.178.268-.222.221-.577.009-.872a24.616 24.616 0 00-.193-.263c-.536-.722-1.044-1.406-1.044-2.778v-5.113l.002-.52c.012-1.961.022-3.753-1.446-5.123C14.567 6.424 12.482 6 10.885 6 7.766 6 4.283 7.163 3.55 11.02c-.074.41.222.628.489.688l3.184.341c.295-.014.512-.304.568-.6.272-1.328 1.388-1.97 2.639-1.97.673 0 1.44.25 1.84.854.41.604.404 1.41.399 2.131l-.002.245v.425a83.36 83.36 0 01-.96.101c-1.725.177-3.715.38-5.208 1.038C4.444 15.16 3 16.973 3 19.635c0 3.41 2.15 5.112 4.91 5.112 2.334 0 3.607-.55 5.407-2.386.095.137.18.263.26.38.424.628.706 1.047 1.623 1.808zm-2.534-7.9v-.885c-2.371 0-4.876.507-4.876 3.303 0 1.417.733 2.376 1.993 2.376.922 0 1.749-.567 2.27-1.49.616-1.083.615-2.103.613-3.304z" clip-rule="evenodd"/><path fill="#fff" d="M45.985 37.944c7.687 0 16.615-2.423 22.775-6.963 1.02-.757.148-1.883-.895-1.44-6.903 2.93-14.41 4.342-21.234 4.342-10.119 0-19.915-2.773-27.837-7.382-.692-.407-1.209.304-.632.825 7.341 6.63 17.044 10.617 27.823 10.617z"/><path fill="#fff" d="M64.164 27.807c1.999-.237 6.377-.757 7.157.244.788 1.009-.872 5.157-1.616 7.015l-.003.008c-.227.562.258.789.766.364 3.308-2.764 4.157-8.555 3.483-9.39-.673-.83-6.45-1.545-9.97.932-.545.379-.453.905.151.83l.032-.003z"/></svg>