<svg xmlns="http://www.w3.org/2000/svg" width="146" height="40" fill="currentColor" viewBox="0 0 146 40"><path fill="#fff" d="M3 5h14.271v14.271H3V5zM18.729 5H33v14.271H18.728V8.564 5zM136.194 9.91c-1.483-.408-3.183-.328-4.498.528-.849.543-1.465 1.412-1.741 2.376-.227.74-.217 1.508-.206 2.275.005.34.009.678-.007 1.014h-.143c-.666-.006-1.332-.01-1.997.005.008.767.005 1.534.003 2.3l-.001.172c.363.008.726.007 1.088.006.354 0 .707-.001 1.06.006-.004 2.44-.003 4.881-.002 7.322l.001 3.086h3.086v-2.61l.001-7.802c1.505-.002 3.011-.002 4.517 0 .002.969.002 1.938.001 2.907-.001 1.243-.002 2.485.003 3.727.014 1.03.189 2.132.871 2.945.591.72 1.528 1.05 2.434 1.117.954.068 1.939-.05 2.822-.432V26.32c-.677.452-1.611.632-2.348.22-.439-.243-.61-.762-.666-1.231-.063-.532-.057-1.068-.051-1.603.003-.264.006-.529 0-.793v-1.571c.001-.918.001-1.835-.001-2.752.324 0 .649-.002.974-.004.697-.005 1.394-.01 2.092.019v-2.507h-1.115a119.32 119.32 0 00-1.939.007 112.32 112.32 0 01-.011-2.322c.002-.514.003-1.028-.001-1.542-.366.11-.731.223-1.097.336-.65.201-1.301.402-1.957.589a60.614 60.614 0 00-.01 1.705v.001c.001.409.002.818-.003 1.226H135.71c-.957 0-1.915 0-2.872-.002.006-.255.002-.511-.001-.768-.008-.515-.015-1.031.059-1.543.091-.603.441-1.206 1.029-1.44.741-.304 1.57-.101 2.275.209-.002-.343-.001-.686-.001-1.03.002-.538.003-1.077-.005-1.615zM67.32 11.223c-.412-.487-1.086-.7-1.708-.605-.858.098-1.589.877-1.566 1.75-.035.831.632 1.577 1.434 1.72.772.17 1.658-.157 2.054-.86a1.76 1.76 0 00-.214-2.005zM46.446 11h-4.489c-.002 6 0 12 0 18H44.895v-4.992-3.068c.003-.73.001-1.462 0-2.194v-.001c-.004-1.209-.008-2.417.016-3.625.056.088.107.18.155.274.69 1.708 1.378 3.418 2.066 5.128 1.138 2.828 2.275 5.656 3.422 8.48.306-.005.612-.003.918-.002.434.002.867.004 1.3-.011 1.011-2.586 2.037-5.167 3.062-7.747l.001-.002.001-.003.001-.002c.772-1.943 1.545-3.887 2.31-5.832.048-.1.102-.196.163-.289.013.199.02.398.019.597-.003 1.945-.002 3.89-.002 5.834.002 2.483.003 4.966-.004 7.448.68.01 1.36.008 2.04.007.359-.001.717-.002 1.075 0v-1.8c-.001-5.4-.002-10.8 0-16.198-.49 0-.98 0-1.47-.002-.95-.002-1.9-.005-2.848.01a1581.59 1581.59 0 01-3.275 8.066l-.001.003a2463.08 2463.08 0 00-2.128 5.226c-.238-.56-.46-1.127-.682-1.693v-.001l-.001-.001c-.127-.324-.254-.648-.384-.97-.633-1.605-1.267-3.21-1.902-4.814l-.002-.005c-.767-1.94-1.535-3.88-2.3-5.82zM78.69 16.1a8.449 8.449 0 00-4.584-.013c-1.367.394-2.622 1.233-3.424 2.419-.958 1.39-1.296 3.125-1.221 4.789.075 1.6.706 3.198 1.868 4.318 1.07 1.039 2.543 1.599 4.02 1.677 1.445.07 2.958-.123 4.22-.874-.006-.494-.006-.988-.005-1.482.001-.438.002-.875-.002-1.313-.814.595-1.763 1.021-2.77 1.137-1.018.077-2.11-.168-2.887-.86-.75-.639-1.148-1.601-1.247-2.565-.134-1.23.045-2.567.817-3.573a3.623 3.623 0 012.564-1.424c1.265-.16 2.527.323 3.523 1.083.004-.43.003-.861.002-1.291-.001-.554-.002-1.107.007-1.66a3.706 3.706 0 00-.88-.367zM112.093 16.336c-1.35-.512-2.844-.696-4.271-.445-1.207.215-2.39.841-3.072 1.886-.596.897-.673 2.053-.426 3.08.166.695.591 1.312 1.153 1.75.635.488 1.37.804 2.102 1.12h.001c.188.08.375.16.56.244l.053.025c.468.22.958.45 1.295.857.373.547.26 1.441-.369 1.754-.657.315-1.424.31-2.13.195a6.753 6.753 0 01-2.8-1.208c-.007.587-.006 1.174-.005 1.762v.004c.001.406.002.811 0 1.217.986.44 2.065.651 3.138.72 1.511.057 3.154-.238 4.295-1.304 1.195-1.056 1.483-2.927.803-4.343-.362-.756-1.054-1.28-1.768-1.682-.408-.236-.844-.416-1.279-.596-.533-.22-1.066-.44-1.547-.762-.512-.325-.657-1.037-.448-1.58.264-.548.898-.792 1.474-.815a5.436 5.436 0 013.242.958v-1.18c0-.553.001-1.105-.001-1.657zM89.337 16.056c-.93-.314-2.013-.27-2.864.241-.774.438-1.265 1.218-1.595 2.021v-.984c0-.41 0-.82.002-1.23l-.045-.001c-1-.005-2.001-.01-3.002.003.004 2.522.003 5.044.002 7.565v5.33h3.043v-4.242-1.928c-.024-.893.05-1.817.44-2.634.36-.771 1.054-1.444 1.93-1.543a3.282 3.282 0 012.087.49v-1.372c0-.572 0-1.144.002-1.716zM64.834 16.1l-.507.003v6.591L64.329 29h3.065v-5.212c-.001-2.56-.002-5.12.005-7.68-.854-.016-1.71-.011-2.564-.007z"/><path fill="#fff" fill-rule="evenodd" d="M99.436 16.386c-1.375-.625-2.937-.71-4.418-.52-1.556.195-3.07.927-4.058 2.168-.902 1.107-1.34 2.53-1.425 3.942-.124 1.664.154 3.43 1.13 4.818.833 1.198 2.147 2.022 3.566 2.325 1.187.25 2.428.25 3.614.004 1.388-.286 2.684-1.054 3.544-2.187.84-1.067 1.261-2.413 1.357-3.756.096-1.376-.043-2.8-.614-4.069-.536-1.191-1.503-2.187-2.696-2.725zm-5.529 2.73c.547-.51 1.293-.76 2.031-.801.928-.06 1.915.201 2.582.876.713.701.989 1.718 1.065 2.689.055 1.062.011 2.168-.434 3.152-.295.663-.835 1.224-1.517 1.49-.797.306-1.692.324-2.515.11-.838-.22-1.548-.825-1.935-1.596-.497-.992-.572-2.14-.469-3.228.094-.99.438-2.008 1.192-2.692zM124.2 16.483c-1.406-.71-3.041-.813-4.582-.622-1.242.16-2.462.63-3.41 1.463-1.157.997-1.836 2.462-2.036 3.962-.19 1.499-.126 3.078.485 4.48a5.723 5.723 0 003.136 3.043c1.373.54 2.901.601 4.347.367 1.479-.244 2.879-1.021 3.795-2.218.978-1.236 1.398-2.835 1.396-4.394.022-1.043-.109-2.1-.48-3.08-.475-1.28-1.425-2.388-2.651-3zm-6.001 2.915c.552-.665 1.399-1.033 2.253-1.08.871-.061 1.802.14 2.472.729.618.513.961 1.28 1.117 2.054.177.907.175 1.845.026 2.756-.119.679-.353 1.356-.798 1.894-.448.54-1.115.869-1.804.97-.738.11-1.517.058-2.208-.24-.745-.316-1.323-.961-1.627-1.703-.366-.885-.439-1.865-.366-2.81.07-.917.33-1.857.935-2.57z" clip-rule="evenodd"/><path fill="#fff" d="M3 20.728h6.66l7.611.001a43098.809 43098.809 0 010 14.271H3V20.728zM29.436 20.729H18.729V35h14.27V20.729h-3.564z"/></svg>