<svg xmlns="http://www.w3.org/2000/svg" width="27" height="40" fill="currentColor" viewBox="0 0 27 40"><path fill="#fff" d="M26.434 25.938a17.384 17.384 0 01-1.723 3.093c-.906 1.29-1.648 2.183-2.22 2.679-.887.814-1.836 1.23-2.853 1.254-.73 0-1.611-.207-2.636-.628-1.028-.419-1.973-.626-2.837-.626-.906 0-1.878.207-2.918.626-1.041.42-1.88.64-2.521.662-.975.041-1.947-.387-2.918-1.288-.619-.54-1.394-1.464-2.322-2.773-.995-1.399-1.814-3.02-2.455-4.87C.344 22.072 0 20.138 0 18.266c0-2.145.464-3.994 1.394-5.544a8.17 8.17 0 012.92-2.948A7.864 7.864 0 018.26 8.66c.775 0 1.79.239 3.053.709 1.259.472 2.067.71 2.421.71.265 0 1.163-.279 2.685-.836 1.44-.518 2.655-.732 3.65-.647 2.697.217 4.723 1.278 6.07 3.19-2.412 1.46-3.605 3.503-3.581 6.124.022 2.042.764 3.74 2.222 5.09A7.305 7.305 0 0027 24.455c-.178.515-.366 1.01-.566 1.483zM20.25 1.641c0 1.6-.586 3.094-1.753 4.477-1.409 1.645-3.113 2.595-4.96 2.445a4.983 4.983 0 01-.038-.607c0-1.536.67-3.18 1.86-4.525.594-.68 1.35-1.246 2.265-1.698.915-.444 1.78-.69 2.592-.733.024.214.034.428.034.64z"/></svg>