<svg width="136" height="40" fill="none" xmlns="http://www.w3.org/2000/svg"><path d="M10.73 25.383c.089-.351.146-.93-.034-1.382-.414-1.034-1.87-1.828-3.463-2.697-2.13-1.161-4.504-2.457-4.97-4.639-.197-.938-.175-1.684-.043-2.517C2.717 11.101 5.438 10 8.77 10c2.647 0 6.309.636 6.309 4.705v1.316h-4.674v-1.158c0-1.017-.637-1.693-1.736-1.693-1.17 0-1.578.654-1.71 1.255-.062.325-.056.659.018.982.226.93 1.638 1.675 3.249 2.525 2.18 1.15 4.723 2.491 5.178 4.74.08.39.246 1.448.018 3.061C14.978 28.851 12.19 30 8.805 30 5.284 30 2 28.741 2 24.576v-1.439h5.025v1.811c0 1.018.712 1.693 1.881 1.693 1.249 0 1.671-.636 1.825-1.258zm60.94 0c.087-.351.144-.93-.036-1.382-.414-1.034-1.87-1.828-3.463-2.697-2.129-1.161-4.504-2.457-4.969-4.639-.198-.938-.176-1.684-.044-2.517.497-3.047 3.218-4.148 6.55-4.148 2.647 0 6.31.636 6.31 4.705v1.316h-4.674v-1.158c0-1.017-.637-1.693-1.736-1.693-1.17 0-1.579.654-1.71 1.255-.063.325-.057.659.017.982.226.93 1.639 1.675 3.25 2.525 2.18 1.15 4.722 2.491 5.177 4.74.08.39.247 1.448.018 3.061C75.916 28.851 73.13 30 69.744 30c-3.522 0-6.806-1.259-6.806-5.424v-1.439h5.025v1.811c0 1.018.713 1.693 1.882 1.693 1.249 0 1.67-.636 1.824-1.258zM22.043 10.596l-3.473 18.676h5.06l2.563-16.948h.106l2.492 16.948h5.034l-3.451-18.68-8.33.004zm28.289 0l-2.308 14.278h-.11L45.61 10.596h-7.636l-.413 18.676h4.686l.115-16.79h.105l3.126 16.79h4.752l3.13-16.786h.1l.12 16.786h4.681l-.413-18.68-7.631.004zm38.742 14.528c-.092.456-.492 1.35-1.793 1.35-1.306 0-1.71-.894-1.798-1.35a3.715 3.715 0 0 1-.044-.72V10.593H80.7v13.392c-.004.342.032 1.043.045 1.228.33 3.486 3.09 4.617 6.537 4.617 3.442 0 6.203-1.131 6.532-4.617.03-.409.045-.819.044-1.228V10.596H89.12V24.41c0 .241-.004.513-.044.715zm21.356.132l-.255-14.66h4.638v18.479h-6.669l-4.62-15.168h-.101l.255 15.168h-4.603V10.596h6.946l4.308 14.66h.101zm17.813-.334c-.084.505-.559 1.36-1.913 1.36s-1.828-.855-1.916-1.355a4.5 4.5 0 0 1-.044-.71v-8.538c0-.303.022-.636.079-.882.101-.46.501-1.36 1.864-1.36 1.433 0 1.784.948 1.872 1.36.058.272.058.71.058.71v1.049h4.721v-.627s.017-.632-.044-1.228c-.343-3.5-3.253-4.613-6.572-4.613s-6.155 1.122-6.572 4.617c-.035.307-.079.895-.079 1.228v7.858c0 .35.013.605.066 1.228.312 3.403 3.266 4.617 6.585 4.617s6.277-1.214 6.585-4.617c.057-.623.066-.877.066-1.228v-5.008h-6.634v2.719h1.922v2.719c0 .232-.005.495-.044.701z" fill="#fff"/></svg>