<svg width="102" height="40" fill="none" xmlns="http://www.w3.org/2000/svg"><path d="M14.695 15.367v3.393l8.174-.004c-.25 1.871-.887 3.241-1.854 4.2-1.192 1.183-3.053 2.484-6.32 2.484-5.037 0-8.977-4.027-8.977-9.024 0-4.996 3.94-9.023 8.977-9.023 2.719 0 4.703 1.06 6.168 2.422l2.413-2.394C21.233 5.485 18.515 4 14.7 4 7.8 4 2 9.574 2 16.416c0 6.843 5.8 12.417 12.699 12.417 3.721 0 6.53-1.211 8.73-3.483 2.26-2.242 2.962-5.39 2.962-7.935 0-.757-.058-1.456-.171-2.048H14.695zm68.95 12.979V4.912h-3.453v23.434h3.452z" fill="#fff"/><path fill-rule="evenodd" clip-rule="evenodd" d="M35.852 28.836c4.456 0 8.087-3.392 8.087-7.996 0-4.636-3.63-7.996-8.087-7.996-4.455 0-8.086 3.36-8.086 7.996 0 4.604 3.63 7.996 8.086 7.996zm0-12.841c2.443 0 4.547 1.968 4.547 4.845 0 2.845-2.104 4.845-4.547 4.845-2.442 0-4.546-1.997-4.546-4.845 0-2.877 2.104-4.845 4.546-4.845zm17.444 12.841c4.456 0 8.087-3.392 8.087-7.996 0-4.636-3.63-7.996-8.087-7.996-4.455 0-8.086 3.363-8.086 7.996 0 4.604 3.63 7.996 8.086 7.996zm0-12.841c2.443 0 4.547 1.968 4.547 4.845 0 2.845-2.104 4.845-4.547 4.845-2.442 0-4.546-1.997-4.546-4.845 0-2.877 2.104-4.845 4.546-4.845zm24.806-2.665v14.353c0 5.905-3.511 8.317-7.662 8.317-3.907 0-6.258-2.592-7.145-4.712l3.082-1.273c.549 1.302 1.894 2.838 4.06 2.838 2.657 0 4.303-1.626 4.303-4.687v-1.15h-.124c-.792.97-2.318 1.817-4.245 1.817-4.03 0-7.723-3.483-7.723-7.964 0-4.514 3.693-8.025 7.723-8.025 1.923 0 3.45.847 4.245 1.788h.124V13.33h3.362zM74.99 20.87c0-2.816-1.894-4.874-4.303-4.874-2.443 0-4.489 2.058-4.489 4.874 0 2.787 2.046 4.816 4.489 4.816 2.41 0 4.303-2.03 4.303-4.816zM97.1 23.472l2.747 1.817c-.886 1.301-3.023 3.544-6.716 3.544-4.58 0-8-3.512-8-7.997 0-4.755 3.45-7.996 7.604-7.996 4.183 0 6.23 3.302 6.898 5.087l.367.909-10.776 4.427c.825 1.604 2.108 2.422 3.907 2.422 1.803 0 3.053-.88 3.969-2.213zm-8.458-2.877l7.204-2.967c-.396-.999-1.588-1.695-2.991-1.695-1.8 0-4.303 1.576-4.213 4.662z" fill="#fff"/></svg>