<svg xmlns="http://www.w3.org/2000/svg" width="124" height="40" fill="currentColor" viewBox="0 0 124 40"><path fill="#fff" d="M8.468 23.508v2.387h7.324v-2.433H13.32v-9.73H8.468v2.478h2.426v7.298H8.468z"/><path fill="#fff" d="M24.26 16.164V32H0V7.672h15.792v2.433H2.426v19.462h19.408V16.164h2.426z"/><path fill="#fff" d="M24.26 10.059v3.718h-2.426v-3.672h-3.662V7.672h3.662V4h2.426v3.672h3.662v2.387H24.26zM50.26 19.836A5.73 5.73 0 0049.985 18a4.007 4.007 0 00-.778-1.377 3.03 3.03 0 00-1.236-.872c-.503-.23-1.053-.321-1.648-.321s-1.144.137-1.648.32a3.03 3.03 0 00-1.235.873c-.32.367-.596.826-.779 1.377a5.73 5.73 0 00-.274 1.836c0 .689.091 1.285.274 1.836.183.55.458 1.01.779 1.377.32.367.732.689 1.235.872.504.23 1.053.322 1.648.322.641 0 1.145-.138 1.648-.322.504-.23.916-.505 1.236-.872.32-.367.595-.826.778-1.377a5.73 5.73 0 00.275-1.836zM79.234 14.925h2.014c1.007 0 1.74.23 2.197.642.504.46.733 1.102.733 1.882 0 .367-.046.735-.183 1.056-.092.321-.32.597-.55.826-.228.23-.549.413-.915.551-.366.138-.778.184-1.282.184h-2.014v-5.141z"/><path fill="#fff" fill-rule="evenodd" d="M32.728 32h91.273V7.672H32.728V32zm19.454-14.689c.32.78.458 1.607.458 2.525 0 .918-.183 1.744-.458 2.479-.32.78-.732 1.469-1.282 2.02a5.97 5.97 0 01-1.968 1.33c-.778.322-1.648.46-2.563.46-.916 0-1.785-.138-2.563-.46a6.175 6.175 0 01-2.014-1.33c-.55-.551-.962-1.24-1.282-2.02-.32-.78-.458-1.607-.458-2.525 0-.918.138-1.744.458-2.524s.732-1.47 1.282-2.02c.595-.55 1.236-1.01 2.014-1.331a7.705 7.705 0 012.563-.46c.915 0 1.785.184 2.563.506a5.97 5.97 0 011.968 1.33c.55.552.962 1.24 1.282 2.02zm10.711-3.718h2.06V26.08h-1.19c-.183 0-.32-.046-.458-.092-.137-.046-.274-.184-.366-.321l-6.5-8.309c0 .092.012.184.023.276.011.092.023.183.023.275v8.217H54.47v-12.44h1.465c.091 0 .137 0 .183.046.045 0 .091.046.137.092a.542.542 0 00.052.043c.045.035.1.077.131.14l6.5 8.309c0-.121-.013-.23-.025-.332-.01-.092-.02-.178-.02-.265v-8.125zm4.532 0h7.827v1.882h-5.493v3.397h4.349v1.79h-4.349v3.535h5.493v1.836h-7.827v-12.44zm18.218 2.25c.183.505.274 1.01.274 1.606 0 .597-.137 1.102-.32 1.607a3.225 3.225 0 01-.87 1.24c-.412.366-.87.642-1.465.825-.549.184-1.236.276-1.968.276H79.28v4.636h-1.694V13.547h3.662c.778 0 1.465.092 2.06.276.595.184 1.099.459 1.465.78.412.367.686.78.87 1.24zm4.073 8.813h5.402v1.423h-7.095V13.593h1.693v11.063zm15.334-11.063h1.602v7.574c0 .735-.091 1.423-.32 2.02a4.693 4.693 0 01-.961 1.606c-.412.46-.961.78-1.556 1.056a5.694 5.694 0 01-2.06.367c-.778 0-1.465-.091-2.06-.367a4.083 4.083 0 01-1.556-1.056c-.458-.459-.778-1.01-1.007-1.606-.23-.643-.32-1.285-.32-2.02v-7.574h1.693v7.62c0 .505.091 1.01.229 1.423.137.413.366.78.64 1.102.275.321.641.55 1.053.734.412.184.87.275 1.374.275.503 0 .961-.091 1.373-.275.366-.184.732-.413 1.007-.734.274-.322.503-.735.641-1.148.137-.413.228-.918.228-1.423v-7.574zm11.398 7.39c.183.322.275.78.275 1.286 0 .55-.092 1.056-.275 1.606a3.67 3.67 0 01-.824 1.24c-.366.321-.824.642-1.327.826-.55.23-1.145.321-1.786.321-.823 0-1.51-.183-2.197-.459a4.936 4.936 0 01-1.693-1.193l.503-.78a.604.604 0 01.092-.07c.034-.022.068-.045.091-.068.092-.046.138-.046.229-.046.138 0 .275.046.412.183a2 2 0 01.299.204c.092.07.189.145.296.21.275.137.55.275.87.413.366.137.732.183 1.236.183.366 0 .732-.091 1.053-.183.274-.092.549-.276.778-.46.229-.229.366-.458.503-.734.138-.275.183-.596.183-.918 0-.367-.091-.688-.274-.918-.183-.23-.412-.413-.687-.597a3.052 3.052 0 00-.961-.413 10.156 10.156 0 00-.549-.183 10.071 10.071 0 01-.55-.184l-1.098-.413c-.366-.138-.687-.367-.962-.597-.274-.23-.503-.55-.686-.918-.183-.367-.275-.826-.275-1.377 0-.459.092-.872.275-1.285.137-.413.412-.78.732-1.102a3.592 3.592 0 011.19-.78c.458-.184 1.007-.275 1.648-.275.733 0 1.373.091 1.923.32a4.27 4.27 0 011.51.965l-.412.78c-.032.064-.086.106-.131.14a.536.536 0 00-.052.044c-.046.046-.137.046-.229.046-.091 0-.183-.046-.32-.138-.051-.034-.109-.068-.17-.105a3.556 3.556 0 01-.334-.216c-.092-.037-.184-.082-.279-.128a3.822 3.822 0 00-.453-.194c-.275-.091-.595-.137-1.007-.137-.366 0-.732.046-1.007.137-.275.092-.549.23-.732.414-.229.137-.367.367-.458.596a2.325 2.325 0 00-.137.78c0 .368.091.643.274.873.183.23.412.413.687.596.274.138.595.276.961.414.183.068.366.126.549.183.183.058.366.115.55.184.366.091.732.23 1.098.413.366.137.687.367.961.597.275.275.504.55.687.918z" clip-rule="evenodd"/></svg>