<svg width="38" height="36" fill="none" xmlns="http://www.w3.org/2000/svg"><g clip-path="url(#clip0)"><path d="M6.96 0h23.83a6.53 6.53 0 0 1 6.535 6.538v22.924A6.53 6.53 0 0 1 30.79 36H6.96a6.531 6.531 0 0 1-6.535-6.538V6.538A6.53 6.53 0 0 1 6.959 0z" fill="#470137"/><path fill-rule="evenodd" clip-rule="evenodd" d="M23.625 25a7.64 7.64 0 0 0 3.306.692c.8 0 1.584-.076 2.368-.215.86-.154 1.707-.4 2.506-.738.108-.047.154-.139.154-.247l-.007-.124a20.13 20.13 0 0 0-.055-.768l-.004-.092c-.014-.302-.027-.58-.027-.831V8c-.015-.061-.076-.123-.153-.108h-3.121c-.108 0-.154.062-.154.17v4.861a6.563 6.563 0 0 0-.238-.014c-.086-.005-.164-.008-.239-.017-.138-.015-.246-.015-.323-.015-1.522 0-2.813.292-3.89.892a6.388 6.388 0 0 0-2.444 2.385 6.321 6.321 0 0 0-.846 3.246c0 1.4.277 2.57.846 3.508A5.362 5.362 0 0 0 23.626 25zm4.813-9.154v6.77a1.344 1.344 0 0 1-.554.076c-.2.016-.415.031-.645.031-.43 0-.861-.061-1.277-.2a2.657 2.657 0 0 1-1.045-.615 3.006 3.006 0 0 1-.692-1.093 4.29 4.29 0 0 1-.261-1.584c0-.8.169-1.462.507-1.954a3.447 3.447 0 0 1 1.307-1.138 3.788 3.788 0 0 1 1.737-.4c.17 0 .339.015.508.03.138.016.276.046.415.077z" fill="#FF61F6"/><path d="M15.215 17.077l4.613-7.615c.03-.031.061-.093.046-.108a.142.142 0 0 0-.17-.108h-3.243a.293.293 0 0 0-.2.031c-.046.03-.077.092-.092.154-.139.257-.277.52-.416.784-.201.384-.405.772-.614 1.154-.354.646-.708 1.293-1.046 1.939a59.617 59.617 0 0 0-1 1.984h-.03a33.852 33.852 0 0 0-1.03-1.953c-.315-.53-.609-1.058-.907-1.595l-.2-.36A29.688 29.688 0 0 1 9.942 9.4a.436.436 0 0 0-.154-.138.907.907 0 0 0-.215-.031h-3.49c-.062 0-.123.015-.154.061-.03.031-.016.093.03.154l4.66 7.893-4.782 7.846c-.031.046-.047.107-.031.169 0 .058.026.055.066.05a.31.31 0 0 1 .041-.004h3.383c.17 0 .292-.015.354-.17.235-.42.471-.854.707-1.288l.354-.65c.338-.646.691-1.307 1.045-1.969.354-.661.707-1.323 1.03-1.984h.03c.37.676.739 1.338 1.108 2 .369.661.723 1.307 1.045 1.938.162.323.327.642.492.962.166.319.33.638.492.961.108.154.277.17.523.17h3.521a.329.329 0 0 1 .092 0c.04.003.068.006.077-.031a.265.265 0 0 0-.03-.185l-4.92-8.077z" fill="#FF61F6"/></g><defs><clipPath id="clip0"><path fill="#fff" transform="translate(.425)" d="M0 0H36.9V36H0z"/></clipPath></defs></svg>