<svg width="25" height="36" fill="none" xmlns="http://www.w3.org/2000/svg"><g clip-path="url(#clip0)"><path d="M6.427 36a6.002 6.002 0 0 0 5.998-6v-6H6.427a6.002 6.002 0 0 0-6 6c0 3.312 2.688 6 6 6z" fill="#5FCB89"/><path d="M.428 18c0-3.312 2.687-6 5.999-6h5.998v12H6.427a6.002 6.002 0 0 1-6-6z" fill="#9860F6"/><path d="M.428 6c0-3.312 2.687-6 5.999-6h5.998v12H6.427a6.002 6.002 0 0 1-6-6z" fill="#DF5A33"/><path d="M12.425 0h5.999a6.002 6.002 0 0 1 5.998 6c0 3.312-2.687 6-5.998 6h-6V0z" fill="#ED7A69"/><path d="M24.422 18c0 3.312-2.687 6-5.998 6a6.002 6.002 0 0 1-6-6c0-3.312 2.688-6 6-6a6.002 6.002 0 0 1 5.998 6z" fill="#59BAF8"/></g><defs><clipPath id="clip0"><path fill="#fff" transform="translate(.425)" d="M0 0H24V36H0z"/></clipPath></defs></svg>