<svg width="41" height="36" fill="none" xmlns="http://www.w3.org/2000/svg"><path d="M8.725 12.837L20.55 36 .675 12.837h8.05zm23.65 0L20.55 36l19.875-23.163h-8.05z" fill="#EA6C00"/><path d="M8.726 12.837h23.649L20.55 36 8.726 12.837z" fill="#FDAD00"/><path d="M20.55 0L9.348 1.185l-.622 11.652L20.55 0zm0 0l11.203 1.185.622 11.652L20.55 0z" fill="#FDD231"/><path d="M40.425 12.837L31.752 1.185l.622 11.652h8.05zm-39.75 0L9.347 1.185l-.622 11.652H.675z" fill="#FDAD00"/><path d="M20.55 0L8.726 12.837h23.649L20.55 0z" fill="#FEEEB7"/></svg>