<svg width="32" height="32" viewBox="0 0 32 32" fill="none" xmlns="http://www.w3.org/2000/svg">
<path fill-rule="evenodd" clip-rule="evenodd" d="M12 4.75C11.4917 4.75 11.0042 4.95193 10.6447 5.31138C10.2853 5.67082 10.0833 6.15833 10.0833 6.66667V8.58333H21.9167V6.66667C21.9167 6.15834 21.7147 5.67082 21.3553 5.31138C20.9958 4.95193 20.5083 4.75 20 4.75H12ZM23.4167 8.66665V6.66667C23.4167 5.76051 23.0567 4.89147 22.4159 4.25072C21.7752 3.60997 20.9062 3.25 20 3.25H12C11.0938 3.25 10.2248 3.60997 9.58405 4.25072C8.9433 4.89147 8.58333 5.76051 8.58333 6.66667V8.66665C7.95733 8.80752 7.37829 9.12314 6.91739 9.58405C6.27664 10.2248 5.91667 11.0938 5.91667 12V14C5.29066 14.1409 4.71163 14.4565 4.25072 14.9174C3.60997 15.5581 3.25 16.4272 3.25 17.3333V25.3333C3.25 26.2395 3.60997 27.1085 4.25072 27.7493C4.89147 28.39 5.76051 28.75 6.66667 28.75H25.3333C26.2395 28.75 27.1085 28.39 27.7493 27.7493C28.39 27.1085 28.75 26.2395 28.75 25.3333V17.3333C28.75 16.4272 28.39 15.5581 27.7493 14.9174C27.2884 14.4565 26.7093 14.1409 26.0833 14V12C26.0833 11.0938 25.7234 10.2248 25.0826 9.58405C24.6217 9.12314 24.0427 8.80752 23.4167 8.66665ZM24.5833 13.9167V12C24.5833 11.4917 24.3814 11.0042 24.022 10.6447C23.6625 10.2853 23.175 10.0833 22.6667 10.0833H9.33333C8.825 10.0833 8.33749 10.2853 7.97805 10.6447C7.6186 11.0042 7.41667 11.4917 7.41667 12V13.9167H24.5833ZM6.66667 15.4167C6.15834 15.4167 5.67082 15.6186 5.31138 15.978C4.95193 16.3375 4.75 16.825 4.75 17.3333V25.3333C4.75 25.8417 4.95193 26.3292 5.31138 26.6886C5.67082 27.0481 6.15833 27.25 6.66667 27.25H25.3333C25.8417 27.25 26.3292 27.0481 26.6886 26.6886C27.0481 26.3292 27.25 25.8417 27.25 25.3333V17.3333C27.25 16.825 27.0481 16.3375 26.6886 15.978C26.3292 15.6186 25.8417 15.4167 25.3333 15.4167H6.66667Z" fill="white"/>
</svg>
