<svg xmlns="http://www.w3.org/2000/svg" width="32" height="32" fill="currentColor" viewBox="0 0 32 32"><path fill="#fff" d="M17 4a1 1 0 10-2 0v1.333a1 1 0 102 0V4zM8.222 6.808a1 1 0 00-1.414 1.414l.942.943A1 1 0 109.165 7.75l-.943-.942zM25.192 8.222a1 1 0 00-1.414-1.414l-.943.942a1 1 0 001.415 1.415l.942-.943zM16 9.667a6.333 6.333 0 100 12.666 6.333 6.333 0 000-12.666zM4 15a1 1 0 100 2h1.333a1 1 0 100-2H4zM26.667 15a1 1 0 100 2H28a1 1 0 100-2h-1.333zM24.25 22.835a1 1 0 10-1.415 1.415l.943.942a1 1 0 001.414-1.414l-.942-.943zM9.165 24.25a1 1 0 00-1.415-1.415l-.942.943a1 1 0 001.414 1.415l.943-.943zM17 26.667a1 1 0 10-2 0V28a1 1 0 102 0v-1.333z"/></svg>