<svg width="32" height="32" viewBox="0 0 32 32" fill="none" xmlns="http://www.w3.org/2000/svg">
<path fill-rule="evenodd" clip-rule="evenodd" d="M5.58373 5.58397C6.22448 4.94322 7.09352 4.58325 7.99967 4.58325H23.9997C24.9058 4.58325 25.7749 4.94322 26.4156 5.58397C27.0564 6.22472 27.4163 7.09376 27.4163 7.99992V23.9999C27.4163 24.9061 27.0564 25.7751 26.4156 26.4159C25.7749 27.0566 24.9058 27.4166 23.9997 27.4166H7.99967C7.09352 27.4166 6.22447 27.0566 5.58373 26.4159C4.94298 25.7751 4.58301 24.9061 4.58301 23.9999V7.99992C4.58301 7.09376 4.94298 6.22472 5.58373 5.58397ZM6.08301 21.6439V23.9999C6.08301 24.5082 6.28494 24.9958 6.64439 25.3552C7.00383 25.7146 7.49134 25.9166 7.99967 25.9166H23.9997C24.508 25.9166 24.9955 25.7146 25.355 25.3552C25.7144 24.9958 25.9163 24.5082 25.9163 23.9999V18.9772L24.0214 17.0823C24.0214 17.0823 24.0214 17.0824 24.0214 17.0823C23.662 16.7231 23.1745 16.5212 22.6663 16.5212C22.1581 16.5212 21.6708 16.723 21.3113 17.0822C21.3113 17.0823 21.3114 17.0822 21.3113 17.0822L19.727 18.6666L21.8633 20.8029C22.1562 21.0958 22.1562 21.5707 21.8633 21.8636C21.5704 22.1565 21.0956 22.1565 20.8027 21.8636L18.1367 19.1976C18.1365 19.1974 18.1362 19.1972 18.136 19.1969C18.1358 19.1967 18.1355 19.1964 18.1353 19.1962L14.6881 15.749C14.6881 15.749 14.6881 15.749 14.6881 15.749C14.3287 15.3897 13.8412 15.1878 13.333 15.1878C12.8248 15.1878 12.3374 15.3896 11.978 15.7489C11.978 15.7489 11.978 15.7489 11.978 15.7489L6.08301 21.6439ZM18.6663 17.6059L15.7487 14.6883C15.108 14.0477 14.239 13.6878 13.333 13.6878C12.427 13.6878 11.5581 14.0476 10.9174 14.6882L6.08301 19.5226V7.99992C6.08301 7.49159 6.28494 7.00408 6.64439 6.64463C7.00383 6.28519 7.49134 6.08325 7.99967 6.08325H23.9997C24.508 6.08325 24.9955 6.28519 25.355 6.64463C25.7144 7.00408 25.9163 7.49159 25.9163 7.99992V16.8559L25.082 16.0216C24.4413 15.3811 23.5723 15.0212 22.6663 15.0212C21.7604 15.0212 20.8915 15.381 20.2508 16.0215L18.6663 17.6059Z" fill="white"/>
</svg>
