<svg width="32" height="32" viewBox="0 0 32 32" fill="none" xmlns="http://www.w3.org/2000/svg">
<path fill-rule="evenodd" clip-rule="evenodd" d="M4 5.5C4 4.67157 4.67157 4 5.5 4H8.5C9.32843 4 10 4.67157 10 5.5H22C22 4.67157 22.6716 4 23.5 4H26.5C27.3284 4 28 4.67157 28 5.5V8.5C28 9.32843 27.3284 10 26.5 10V22C27.3284 22 28 22.6716 28 23.5V26.5C28 27.3284 27.3284 28 26.5 28H23.5C22.6716 28 22 27.3284 22 26.5H7.7312C6.49903 26.4852 5.49023 25.4891 5.49023 24.25V9.99997C4.6663 9.99472 4 9.32517 4 8.5V5.5ZM14.5 25H22V23.5C22 22.6716 22.6716 22 23.5 22H25V10H23.5C22.6716 10 22 9.32843 22 8.5V7H10V8.5C10 9.32843 9.32843 10 8.5 10H6.99023V17.5H13.4393L17.9393 13H14.5C14.0858 13 13.75 12.6642 13.75 12.25C13.75 11.8358 14.0858 11.5 14.5 11.5H19.75C19.8517 11.5 19.9487 11.5202 20.0371 11.5569C20.1255 11.5935 20.2084 11.6478 20.2803 11.7197C20.3522 11.7916 20.4065 11.8745 20.4431 11.9629C20.4751 12.0401 20.4946 12.1238 20.499 12.2114C20.4997 12.2242 20.5 12.2371 20.5 12.25V17.5C20.5 17.9142 20.1642 18.25 19.75 18.25C19.3358 18.25 19 17.9142 19 17.5V14.0607L14.5 18.5607V25ZM6.99023 19H13V25H7.74549C7.31949 24.9929 6.99023 24.6497 6.99023 24.25V19ZM23.5002 25.75L23.5 25.7689V26.5H26.5V23.5H23.5V25.7311L23.5002 25.75ZM8.5 8.5H5.5V5.5H8.5V8.5ZM26.5 8.5V5.5H23.5V8.5H26.5Z" fill="white"/>
</svg>
