<svg width="32" height="32" viewBox="0 0 32 32" fill="none" xmlns="http://www.w3.org/2000/svg">
<path fill-rule="evenodd" clip-rule="evenodd" d="M6.66667 3.25C7.08088 3.25 7.41667 3.58579 7.41667 4V5.91667H9.33333C9.74755 5.91667 10.0833 6.25245 10.0833 6.66667C10.0833 7.08088 9.74755 7.41667 9.33333 7.41667H7.41667V9.33333C7.41667 9.74755 7.08088 10.0833 6.66667 10.0833C6.25245 10.0833 5.91667 9.74755 5.91667 9.33333V7.41667H4C3.58579 7.41667 3.25 7.08088 3.25 6.66667C3.25 6.25245 3.58579 5.91667 4 5.91667H5.91667V4C5.91667 3.58579 6.25245 3.25 6.66667 3.25ZM17.3333 3.25C17.6561 3.25 17.9427 3.45656 18.0448 3.7628L20.9797 12.5661L28.2634 15.2978C28.5561 15.4075 28.75 15.6874 28.75 16C28.75 16.3126 28.5561 16.5925 28.2634 16.7022L20.9797 19.4339L18.0448 28.2372C17.9427 28.5434 17.6561 28.75 17.3333 28.75C17.0105 28.75 16.7239 28.5434 16.6218 28.2372L13.687 19.4339L6.4033 16.7022C6.11058 16.5925 5.91667 16.3126 5.91667 16C5.91667 15.6874 6.11058 15.4075 6.4033 15.2978L13.687 12.5661L16.6218 3.7628C16.7239 3.45656 17.0105 3.25 17.3333 3.25ZM17.3333 6.3714L14.9968 13.3799C14.9253 13.5946 14.7606 13.7654 14.5487 13.8449L8.80245 16L14.5487 18.1551C14.7606 18.2346 14.9253 18.4055 14.9968 18.6201L17.3333 25.6286L19.6698 18.6201C19.7414 18.4055 19.9061 18.2346 20.118 18.1551L25.8642 16L20.118 13.8449C19.9061 13.7654 19.7414 13.5946 19.6698 13.3799L17.3333 6.3714ZM8 21.9167C8.41421 21.9167 8.75 22.2525 8.75 22.6667V24.5833H10.6667C11.0809 24.5833 11.4167 24.9191 11.4167 25.3333C11.4167 25.7475 11.0809 26.0833 10.6667 26.0833H8.75V28C8.75 28.4142 8.41421 28.75 8 28.75C7.58579 28.75 7.25 28.4142 7.25 28V26.0833H5.33333C4.91912 26.0833 4.58333 25.7475 4.58333 25.3333C4.58333 24.9191 4.91912 24.5833 5.33333 24.5833H7.25V22.6667C7.25 22.2525 7.58579 21.9167 8 21.9167Z" fill="white"/>
</svg>
