<svg width="32" height="32" viewBox="0 0 32 32" fill="none" xmlns="http://www.w3.org/2000/svg">
<path fill-rule="evenodd" clip-rule="evenodd" d="M13.4644 5.03943C11.4285 5.51046 9.54644 6.54366 8.04505 8.04505C6.11274 9.97736 4.95595 12.5402 4.77501 15.25H11.2575C11.3195 12.1726 11.7608 9.37548 12.46 7.27785C12.7444 6.42443 13.0793 5.6631 13.4644 5.03943ZM16 3.25C12.6185 3.25 9.37548 4.5933 6.98439 6.98439C4.5933 9.37548 3.25 12.6185 3.25 16C3.25 19.3815 4.5933 22.6245 6.98439 25.0156C9.37548 27.4067 12.6185 28.75 16 28.75C19.3815 28.75 22.6245 27.4067 25.0156 25.0156C27.4067 22.6245 28.75 19.3815 28.75 16C28.75 12.6185 27.4067 9.37548 25.0156 6.98439C22.6245 4.5933 19.3815 3.25 16 3.25ZM18.5356 5.03943C20.5715 5.51046 22.4536 6.54366 23.955 8.04505C25.8873 9.97736 27.044 12.5402 27.225 15.25H20.7425C20.6805 12.1726 20.2392 9.37548 19.54 7.27785C19.2556 6.42443 18.9207 5.6631 18.5356 5.03943ZM19.2422 15.25C19.1802 12.2982 18.7555 9.66782 18.117 7.75215C17.7696 6.70999 17.3725 5.92069 16.968 5.40733C16.5568 4.88552 16.224 4.75 16 4.75C15.776 4.75 15.4432 4.88552 15.032 5.40733C14.6275 5.92069 14.2304 6.70999 13.883 7.75215C13.2445 9.66782 12.8198 12.2982 12.7578 15.25H19.2422ZM12.7578 16.75H19.2422C19.1802 19.7018 18.7555 22.3322 18.117 24.2478C17.7696 25.29 17.3725 26.0793 16.968 26.5927C16.5568 27.1145 16.224 27.25 16 27.25C15.776 27.25 15.4432 27.1145 15.032 26.5927C14.6275 26.0793 14.2304 25.29 13.883 24.2478C13.2445 22.3322 12.8198 19.7018 12.7578 16.75ZM11.2575 16.75H4.77501C4.95595 19.4598 6.11274 22.0226 8.04505 23.955C9.54644 25.4563 11.4285 26.4895 13.4644 26.9606C13.0793 26.3369 12.7444 25.5756 12.46 24.7222C11.7608 22.6245 11.3195 19.8274 11.2575 16.75ZM18.5356 26.9606C18.9207 26.3369 19.2556 25.5756 19.54 24.7222C20.2392 22.6245 20.6805 19.8274 20.7425 16.75H27.225C27.044 19.4598 25.8873 22.0226 23.955 23.955C22.4536 25.4563 20.5715 26.4895 18.5356 26.9606Z" fill="white"/>
</svg>
