<svg width="32" height="32" viewBox="0 0 32 32" fill="none" xmlns="http://www.w3.org/2000/svg">
<path fill-rule="evenodd" clip-rule="evenodd" d="M15.4693 4.80292C15.7622 4.51003 16.2371 4.51003 16.53 4.80292L21.8633 10.1363C22.1562 10.4291 22.1562 10.904 21.8633 11.1969C21.5704 11.4898 21.0956 11.4898 20.8027 11.1969L16.7497 7.14391V21.3333C16.7497 21.7475 16.4139 22.0833 15.9997 22.0833C15.5855 22.0833 15.2497 21.7475 15.2497 21.3333V7.14391L11.1967 11.1969C10.9038 11.4898 10.4289 11.4898 10.136 11.1969C9.84312 10.904 9.84312 10.4291 10.136 10.1363L15.4693 4.80292ZM5.33301 19.5833C5.74722 19.5833 6.08301 19.919 6.08301 20.3333V22.6666C6.08301 23.5285 6.42542 24.3552 7.03491 24.9647C7.6444 25.5742 8.47105 25.9166 9.33301 25.9166H22.6663C23.5283 25.9166 24.3549 25.5742 24.9644 24.9647C25.5739 24.3552 25.9163 23.5285 25.9163 22.6666V20.3333C25.9163 19.919 26.2521 19.5833 26.6663 19.5833C27.0806 19.5833 27.4163 19.919 27.4163 20.3333V22.6666C27.4163 23.9264 26.9159 25.1345 26.0251 26.0253C25.1343 26.9161 23.9261 27.4166 22.6663 27.4166H9.33301C8.07323 27.4166 6.86505 26.9161 5.97425 26.0253C5.08345 25.1345 4.58301 23.9264 4.58301 22.6666V20.3333C4.58301 19.919 4.91879 19.5833 5.33301 19.5833Z" fill="white"/>
</svg>
